<?xml version="1.0" encoding="utf-8"?>
<!-- Generator: Adobe Illustrator 24.0.2, SVG Export Plug-In . SVG Version: 6.00 Build 0)  -->
<svg version="1.1" id="Capa_1" xmlns="http://www.w3.org/2000/svg" xmlns:xlink="http://www.w3.org/1999/xlink" x="0px" y="0px"
	 viewBox="0 0 300 300" style="enable-background:new 0 0 300 300;" xml:space="preserve">
<style type="text/css">
	.st0{fill:#BFE2E4;}
	.st1{opacity:0.73;fill:#87CBC5;}
	.st2{fill:#F9AF37;}
	.st3{fill:#F3933C;}
	.st4{fill:#EF773C;}
	.st5{fill:#3FB7AF;}
	.st6{fill:#7B4E12;}
	.st7{fill:#FFFFFF;}
	.st8{fill:#E6E8E8;}
	.st9{fill:#91D0D3;}
	.st10{fill:#DADCDC;}
	.st11{fill:#1BB19D;}
</style>
<g>
	<g>
		<g>
			
				<ellipse transform="matrix(0.7071 -0.7071 0.7071 0.7071 -67.2078 151.1849)" class="st0" cx="148.89" cy="156.72" rx="94.1" ry="94.1"/>
			<path class="st1" d="M225.75,179.34v31.64c-3.47,4.9-7.37,9.43-11.68,13.58v-45.22h-0.02v-0.11c-0.05-0.23-5.73-4.94-10.1-8.52
				v-1.98l5.28-1.37c2.17-0.56,4.46-0.38,6.49,0.5c0.92,0.4,1.87,0.77,2.82,1.08v4.13c4.37,3.58,7.13,5.91,7.19,6.14v0.11H225.75z"
				/>
		</g>
		<g>
			<g>
				<polygon class="st2" points="14.97,35.99 42.58,100.78 62.76,86.97 74.46,103.97 76.57,75.3 101,60.42 				"/>
				<polygon class="st3" points="67.24,83.91 42.58,100.78 62.76,86.97 74.46,103.97 76.57,75.3 37.65,52.12 				"/>
				<polygon class="st4" points="76.05,82.33 37.65,52.12 76.57,75.3 				"/>
			</g>
			<g>
				<path class="st5" d="M74.95,112.05c-0.22-1.26-0.49-2.52-0.82-3.74l1.89-0.51c0.34,1.28,0.63,2.6,0.86,3.92L74.95,112.05z"/>
				<path class="st5" d="M52.09,156.06c-2.85-0.19-5.57-1.1-7.87-2.63l1.08-1.63c2.02,1.34,4.41,2.14,6.92,2.3L52.09,156.06z
					 M60.23,154.46l-0.87-1.76c2.04-1,4.01-2.56,5.86-4.62l1.46,1.31C64.67,151.64,62.5,153.35,60.23,154.46z M38.76,147.17
					c-1.11-2.24-1.69-4.7-1.69-7.12c0-0.2,0-0.4,0.01-0.6l0.02-0.42l1.95,0.14l-0.02,0.36c-0.01,0.18-0.01,0.35-0.01,0.52
					c0,2.12,0.51,4.28,1.49,6.25L38.76,147.17z M114.6,146.72l-0.01-1.96c2.55-0.01,5.18-0.12,7.81-0.31l0.14,1.95
					C119.87,146.6,117.2,146.71,114.6,146.72z M106.65,146.47l-1.25-0.1c-2.41-0.2-4.59-0.47-6.67-0.83l0.33-1.93
					c2.03,0.35,4.15,0.61,6.5,0.81l1.23,0.09L106.65,146.47z M130.44,145.57l-0.26-1.94c2.52-0.34,5.12-0.77,7.72-1.27l0.37,1.92
					C135.63,144.79,133,145.23,130.44,145.57z M90.93,143.59c-2.3-0.78-4.46-1.74-6.42-2.85c-0.31-0.17-0.61-0.35-0.92-0.54
					l1.01-1.68c0.29,0.17,0.57,0.34,0.87,0.51c1.85,1.05,3.9,1.95,6.09,2.7L90.93,143.59z M71.37,142.81l-1.7-0.98
					c1.27-2.21,2.36-4.56,3.23-6.99l1.84,0.66C73.84,138.05,72.7,140.5,71.37,142.81z M146.02,142.6l-0.46-1.9
					c2.45-0.59,5-1.27,7.58-2.01l0.54,1.89C151.07,141.31,148.5,141.99,146.02,142.6z M161.25,138.25l-0.6-1.86
					c2.49-0.81,4.97-1.65,7.44-2.53l0.65,1.85C166.25,136.59,163.76,137.44,161.25,138.25z M77.05,135.67
					c-1.8-1.31-3.74-2.69-5.84-3.84l-0.66-0.35l0.9-1.74c0.23,0.12,0.47,0.24,0.7,0.37c2.2,1.2,4.28,2.68,6.05,3.97L77.05,135.67z
					 M41.81,132.72l-1.37-1.4c1.73-1.69,4.09-2.96,7.21-3.87l0.66,1.85C45.43,130.14,43.28,131.28,41.81,132.72z M63.4,128.9
					c-2.23-0.5-4.51-0.75-6.79-0.75l-0.79,0.01l-0.05-1.96c2.7-0.07,5.42,0.2,8.06,0.79L63.4,128.9z M76.82,127.74l-1.93-0.34
					c0.45-2.53,0.68-5.12,0.7-7.68l1.96,0.01C77.53,122.4,77.29,125.1,76.82,127.74z"/>
				<path class="st5" d="M176.24,132.94l-0.7-1.83c1.22-0.47,2.44-0.94,3.65-1.41l0.71,1.83C178.69,132,177.47,132.48,176.24,132.94
					z"/>
			</g>
			<path class="st5" d="M237.95,180.72c-1,0-1.85-0.76-1.95-1.77c-0.11-1.08,0.68-2.03,1.76-2.14c11.85-1.15,22.74-6.8,30.69-15.92
				c0.71-0.82,1.95-0.9,2.76-0.19c0.82,0.71,0.9,1.95,0.19,2.77c-8.6,9.88-20.42,16.01-33.26,17.25
				C238.07,180.71,238.01,180.72,237.95,180.72z"/>
			<g>
				<g>
					<path class="st6" d="M214.06,179.34l-68.29,40.27l-68.29-40.27c0-0.03,0-0.08,0.01-0.11c0.06-0.26,3.82-3.4,9.57-8.07
						c0.06-0.04,0.1-0.09,0.16-0.13c18.86-15.31,58.55-46.66,58.55-46.66s39.69,31.35,58.55,46.66c5.84,4.74,9.67,7.94,9.73,8.21
						C214.06,179.26,214.06,179.31,214.06,179.34z"/>
					<g>
						<path class="st7" d="M173.85,91.01h-73.68c-6.32,0-11.44,5.12-11.44,11.44v111.4c0,6.32,5.12,11.44,11.44,11.44h92.32
							c6.32,0,11.44-5.12,11.44-11.44V121.1L173.85,91.01z"/>
						<path class="st8" d="M173.85,109.65c0,6.32,5.12,11.44,11.44,11.44h18.64l-30.09-30.09V109.65z"/>
						<path class="st9" d="M137.04,109.84h-28.18c-1.49,0-2.7,1.21-2.7,2.7v28.18c0,1.49,1.21,2.7,2.7,2.7h28.18
							c1.49,0,2.7-1.21,2.7-2.7v-28.18C139.73,111.05,138.52,109.84,137.04,109.84z"/>
						<path class="st10" d="M170.48,152.74h-60.99c-1.81,0-3.28,1.47-3.28,3.28l0,0c0,1.81,1.47,3.28,3.28,3.28h60.99
							c1.81,0,3.28-1.47,3.28-3.28l0,0C173.76,154.21,172.29,152.74,170.48,152.74z"/>
						<path class="st10" d="M170.48,169.1h-60.99c-1.81,0-3.28,1.47-3.28,3.28l0,0c0,1.81,1.47,3.28,3.28,3.28h60.99
							c1.81,0,3.28-1.47,3.28-3.28l0,0C173.76,170.57,172.29,169.1,170.48,169.1z"/>
						<path class="st10" d="M142.78,184.97h-33.29c-1.81,0-3.28,1.47-3.28,3.28l0,0c0,1.81,1.47,3.28,3.28,3.28h33.29
							c1.81,0,3.28-1.47,3.28-3.28l0,0C146.06,186.44,144.59,184.97,142.78,184.97z"/>
					</g>
					<g>
						<path class="st2" d="M214.06,179.34v65.51c0,4.58-3.74,8.32-8.32,8.32H85.79c-4.58,0-8.3-3.74-8.3-8.32v-65.51l68.29,40.26
							L214.06,179.34z"/>
						<path class="st3" d="M211.76,250.56l-43.95-43.95l-22.03,12.99l-22.04-12.99l-43.95,43.95c1.51,1.6,3.64,2.61,6,2.61h119.95
							C208.11,253.17,210.24,252.16,211.76,250.56z"/>
					</g>
				</g>
			</g>
			<g>
				<g>
					<path class="st5" d="M227.86,89.4c-19.66,1.93-35.36,18.13-36.77,37.83c-0.7,9.81,2.08,18.91,7.2,26.28
						c1.93,2.78,2.24,6.36,0.95,9.48l-3.24,7.8l13.25-3.44c2.16-0.56,4.44-0.39,6.49,0.5c6.14,2.66,13.06,3.88,20.33,3.17
						c19.29-1.87,34.91-17.45,36.77-36.74C275.33,108.42,253.75,86.86,227.86,89.4z"/>
					<g>
						<path class="st7" d="M233.02,150.95l2.25-2.25c0,0-1.79-4.22,5.72-11.34c4.47-4.24,5.47-8.34,5.11-11.69
							c-0.58-5.34-4.94-9.7-10.28-10.28c-3.35-0.36-7.46,0.64-11.69,5.11c-7.12,7.51-11.34,5.72-11.34,5.72l-2.25,2.25
							L233.02,150.95z"/>
						<path class="st7" d="M215.63,137.18c-1.78,2.43-1.58,5.87,0.62,8.07c2.2,2.2,5.63,2.4,8.07,0.62L215.63,137.18z"/>
						<path class="st7" d="M247.67,118.13l-1.4,1.4c-1.09-1.74-2.58-3.22-4.33-4.3l1.42-1.42c1.2-1.2,3.13-1.2,4.33,0
							C248.87,115,248.87,116.94,247.67,118.13z"/>
					</g>
				</g>
				<path class="st11" d="M230.9,89.23c14.61,4.38,25.27,17.91,25.27,33.94c0,19.58-15.87,35.44-35.44,35.44
					c-10.31,0-19.57-4.43-26.04-11.46c1.02,2.23,2.22,4.37,3.6,6.36c1.93,2.78,2.24,6.36,0.95,9.48l-3.24,7.8l13.25-3.44
					c2.16-0.56,4.44-0.39,6.49,0.5c6.14,2.66,13.06,3.88,20.33,3.17c19.29-1.87,34.91-17.45,36.77-36.74
					C275.23,109.44,255.41,88.59,230.9,89.23z"/>
			</g>
			<path class="st2" d="M17.31,55.2l8.96,20.55c0.46,1.05-0.03,2.27-1.08,2.72l-0.32,0.14c-1.05,0.45-2.28-0.04-2.72-1.09
				l-8.64-20.69c-0.46-1.08,0.08-2.33,1.19-2.74l0,0C15.73,53.71,16.87,54.2,17.31,55.2z"/>
		</g>
	</g>
	<g>
		<path class="st0" d="M52.4,199.84c-3.64,0-6.59,2.95-6.59,6.59c0,3.64,2.95,6.59,6.59,6.59s6.59-2.95,6.59-6.59
			C58.98,202.79,56.03,199.84,52.4,199.84z M52.4,209.1c-1.47,0-2.67-1.19-2.67-2.67c0-1.47,1.19-2.67,2.67-2.67
			c1.47,0,2.67,1.19,2.67,2.67C55.06,207.9,53.87,209.1,52.4,209.1z"/>
		<path class="st0" d="M228.86,226.49c-3.64,0-6.59,2.95-6.59,6.59c0,3.64,2.95,6.59,6.59,6.59c3.64,0,6.59-2.95,6.59-6.59
			C235.44,229.44,232.49,226.49,228.86,226.49z M228.86,235.74c-1.47,0-2.67-1.19-2.67-2.67c0-1.47,1.19-2.67,2.67-2.67
			c1.47,0,2.67,1.19,2.67,2.67C231.52,234.55,230.33,235.74,228.86,235.74z"/>
		<path class="st0" d="M282.73,124.22c-2.78,0-5.04,2.26-5.04,5.04c0,2.78,2.26,5.04,5.04,5.04c2.78,0,5.04-2.26,5.04-5.04
			C287.77,126.47,285.51,124.22,282.73,124.22z M282.73,131.3c-1.13,0-2.04-0.91-2.04-2.04c0-1.13,0.91-2.04,2.04-2.04
			s2.04,0.91,2.04,2.04C284.77,130.38,283.86,131.3,282.73,131.3z"/>
		<path class="st0" d="M193.95,43.56c-2.94,0-5.33,2.39-5.33,5.33c0,2.94,2.39,5.33,5.33,5.33c2.94,0,5.33-2.39,5.33-5.33
			C199.28,45.95,196.89,43.56,193.95,43.56z M193.95,51.05c-1.19,0-2.16-0.97-2.16-2.16c0-1.19,0.97-2.16,2.16-2.16
			c1.19,0,2.16,0.97,2.16,2.16C196.11,50.08,195.14,51.05,193.95,51.05z"/>
		<path class="st0" d="M23.43,167.77c-3.1,0-5.6,2.51-5.6,5.61c0,3.1,2.51,5.6,5.6,5.6c3.1,0,5.61-2.51,5.61-5.6
			C29.04,170.28,26.53,167.77,23.43,167.77z"/>
		<path class="st0" d="M248.3,186.32c-2.25,0-4.08,1.83-4.08,4.08s1.83,4.08,4.08,4.08c2.25,0,4.08-1.83,4.08-4.08
			S250.55,186.32,248.3,186.32z"/>
		<path class="st0" d="M113.3,45.24c-3.29,0-5.96,2.67-5.96,5.96c0,3.29,2.67,5.96,5.96,5.96c3.29,0,5.96-2.67,5.96-5.96
			C119.26,47.9,116.59,45.24,113.3,45.24z"/>
		<path class="st0" d="M145.2,261.05c-2.4,0-4.34,1.94-4.34,4.34c0,2.4,1.94,4.34,4.34,4.34c2.4,0,4.34-1.94,4.34-4.34
			C149.54,263,147.59,261.05,145.2,261.05z"/>
		<path class="st0" d="M229.24,68.22c-2.81,0-5.1,2.28-5.1,5.1c0,2.81,2.28,5.1,5.1,5.1c2.81,0,5.1-2.28,5.1-5.1
			C234.33,70.5,232.05,68.22,229.24,68.22z"/>
		<circle class="st0" cx="48.74" cy="110.73" r="2.9"/>
		<path class="st0" d="M284.49,98.8c-2.73,0-4.95,2.22-4.95,4.95c0,2.73,2.22,4.95,4.95,4.95c2.73,0,4.95-2.22,4.95-4.95
			C289.44,101.02,287.22,98.8,284.49,98.8z"/>
		<circle class="st0" cx="20.65" cy="128.15" r="3.16"/>
		<path class="st0" d="M153.39,34.65l1.98-1.98c0.69-0.69,0.69-1.81,0-2.5s-1.81-0.69-2.5,0l-1.98,1.98l-1.98-1.98
			c-0.69-0.69-1.81-0.69-2.5,0c-0.69,0.69-0.69,1.81,0,2.5l1.98,1.98l-1.98,1.98c-0.69,0.69-0.69,1.81,0,2.5
			c0.69,0.69,1.81,0.69,2.5,0l1.98-1.98l1.98,1.98c0.69,0.69,1.81,0.69,2.5,0s0.69-1.81,0-2.5L153.39,34.65z"/>
		<path class="st0" d="M18.39,94.58l1.98-1.98c0.69-0.69,0.69-1.81,0-2.5c-0.69-0.69-1.81-0.69-2.5,0l-1.98,1.98l-1.98-1.98
			c-0.69-0.69-1.81-0.69-2.5,0c-0.69,0.69-0.69,1.81,0,2.5l1.98,1.98l-1.98,1.98c-0.69,0.69-0.69,1.81,0,2.5
			c0.69,0.69,1.81,0.69,2.5,0l1.98-1.98l1.98,1.98c0.69,0.69,1.81,0.69,2.5,0c0.69-0.69,0.69-1.81,0-2.5L18.39,94.58z"/>
		<path class="st0" d="M252.29,215.67l1.68-1.68c0.58-0.58,0.58-1.54,0-2.12c-0.58-0.58-1.53-0.58-2.12,0l-1.68,1.68l-1.68-1.68
			c-0.58-0.58-1.54-0.58-2.12,0c-0.58,0.58-0.58,1.54,0,2.12l1.68,1.68l-1.68,1.68c-0.58,0.58-0.58,1.54,0,2.12
			c0.58,0.58,1.53,0.58,2.12,0l1.68-1.68l1.68,1.68c0.58,0.58,1.53,0.58,2.12,0c0.58-0.58,0.58-1.54,0-2.12L252.29,215.67z"/>
	</g>
</g>
</svg>
